<svg width="215" height="175" viewBox="0 0 215 175" fill="none" xmlns="http://www.w3.org/2000/svg">
<circle cx="107" cy="105" r="70" fill="black"/>
<path d="M44.5009 22.7962L40.1563 109.29L117.234 69.8055L44.5009 22.7962Z" fill="black"/>
<path d="M170.093 22.7962L174.438 109.29L97.3601 69.8055L170.093 22.7962Z" fill="black"/>
<path d="M107 135L118.258 117.75H95.7417L107 135Z" fill="#F0CFE5"/>
<circle cx="82" cy="90" r="14.5" fill="white" stroke="black"/>
<circle cx="82" cy="90" r="3" fill="black"/>
<circle cx="132" cy="90" r="14.5" fill="white" stroke="black"/>
<circle cx="132" cy="90" r="3" fill="black"/>
<path d="M97.387 133.826L66 122" stroke="white"/>
<path d="M97.5365 137.55L64 137" stroke="white"/>
<path d="M97.9231 141L66.1491 151.743" stroke="white"/>
<path d="M116.714 133.826L148.102 122" stroke="white"/>
<path d="M116.565 137.55L150.102 137" stroke="white"/>
<path d="M116.178 141L147.952 151.743" stroke="white"/>
</svg>
